<?xml version="1.0" encoding="UTF-8" standalone="no"?>
<!-- Created with Inkscape (http://www.inkscape.org/) -->

<svg
   version="1.1"
   id="svg1"
   width="1101.2705"
   height="1346.9553"
   viewBox="0 0 1101.2705 1346.9554"
   xmlns="http://www.w3.org/2000/svg"
   xmlns:svg="http://www.w3.org/2000/svg">
  <defs
     id="defs1" />
  <g
     id="g1"
     transform="translate(-70.666667,-74.978762)">
    <g
       id="g21"
       transform="translate(2.9973631e-7,21.160978)">
      <path
         style="fill:#fde600"
         d="M 580.66667,1399.9333 C 452.59141,1389.3953 337.75446,1339.3638 248,1254.9991 147.07994,1160.1393 91.401835,1050.9437 73.936345,913.6264 c -2.750961,-21.62861 -3.269678,-31.38436 -3.269678,-61.49427 0,-52.00838 4.828285,-93.04077 15.967183,-135.69448 C 121.92586,581.29544 194.74112,476.13435 308,396.73674 c 47.76096,-33.48176 102.88257,-60.06996 157.33333,-75.89058 13.89741,-4.03788 20.57836,-6.57922 20.39706,-7.75876 -0.14828,-0.96475 -2.13994,-7.75408 -4.42591,-15.08742 -12.98653,-41.66042 -18.4023,-94.49746 -12.86517,-125.51424 8.91984,-49.9653 34.02896,-85.966276 73.70742,-105.680262 22.18344,-11.021704 45.02962,-14.76237 74.68383,-12.228185 28.97884,2.476469 47.52774,8.428148 67.12922,21.539361 22.83522,15.274229 39.75009,37.280056 44.09715,57.369296 3.4476,15.93252 -0.38203,39.73564 -8.14757,50.64134 -5.63923,7.91956 -18.84043,11.35975 -28.34777,7.38733 -10.37033,-4.333 -14.64577,-14.53235 -16.84351,-40.1813 -0.75403,-8.79999 -2.03292,-18.39999 -2.84199,-21.33333 -6.46735,-23.44786 -30.353,-47.589605 -52.02897,-52.586804 -26.23526,-6.048302 -66.05374,8.803989 -84.58166,31.548954 -15.98899,19.62815 -23.24925,44.53734 -23.2601,79.80289 -0.0118,38.4211 10.26045,71.14493 31.68519,100.93791 4.10136,5.7033 8.16618,10.95819 9.03293,11.67753 1.03743,0.86099 9.49782,0.57024 24.75956,-0.85087 27.46286,-2.55723 75.27606,-1.89419 103.85029,1.44014 67.92024,7.92561 125.94088,25.20427 186.66667,55.58971 104.01015,52.04369 188.8433,135.78959 242.1162,239.01318 53.1001,102.88874 72.2368,214.53332 56.4664,329.42732 -15.9472,116.18115 -68.4879,223.59705 -150.5781,307.84645 -22.90558,23.508 -41.87199,40.1709 -67.33783,59.1595 -76.72216,57.2077 -169.40882,93.7009 -266.66667,104.9935 -22.0576,2.5611 -80.21949,3.6711 -101.33333,1.9339 z"
         id="path26" />
      <path
         style="fill:#d3a210"
         d="m 655.33333,1212.4059 c -16.01705,-1.4389 -36.30399,-4.8432 -46.77738,-7.8496 -14.11989,-4.0531 -35.95603,-14.1785 -48.33235,-22.4115 -29.06205,-19.3329 -55.87917,-50.4486 -73.02777,-84.7336 -3.97256,-7.9423 -7.96676,-15.0287 -8.876,-15.7476 -0.90924,-0.7189 -7.65316,-3.2697 -14.9865,-5.6684 -31.31769,-10.2441 -55.3776,-21.1029 -81.79786,-36.9173 -14.92406,-8.9331 -19.39226,-11.055 -20.2742,-9.628 -1.29346,2.0928 -3.91046,11.5287 -9.02595,32.544 -2.61566,10.7456 -4.1577,14.7709 -5.77443,15.0732 -6.24048,1.1672 -7.80198,-26.7034 -2.59967,-46.4005 5.60199,-21.2104 17.63951,-42.91416 30.4254,-54.85736 9.26597,-8.65527 19.04671,-13.29445 19.04671,-9.0342 0,0.79297 -3.88724,7.28086 -8.63831,14.41753 -8.78797,13.20056 -18.56693,32.52493 -17.72982,35.03633 0.64339,1.9302 46.29915,20.9283 70.02562,29.1388 63.16781,21.8592 104.97946,28.8294 165.00918,27.508 66.24884,-1.4582 108.52312,-11.1635 155.10138,-35.6078 46.53857,-24.4235 82.42177,-57.39966 126.88045,-116.60128 C 898.69363,901.07623 920,868.996 920,866.43536 920,864.02262 899.49275,843.95831 890.33333,837.40947 886.47119,834.64809 884,831.86127 884,830.26719 c 0,-2.31591 0.69595,-2.5356 6.10218,-1.92624 18.65519,2.10271 44.86284,24.06397 60.85211,50.99233 9.00239,15.16138 15.28732,38.47978 11.26996,41.81389 -2.26065,1.87617 -3.87784,0.12321 -10.89889,-11.81389 -5.58506,-9.49564 -21.7959,-33.33333 -22.66836,-33.33333 -0.3003,0 -6.89831,12.54887 -14.66224,27.88637 -16.01468,31.63673 -27.44556,49.63674 -43.52488,68.53794 -6.1251,7.20004 -12.22259,14.44141 -13.54998,16.09192 -1.7313,2.15277 -2.77483,6.93188 -3.69211,16.90902 -2.89646,31.5043 -9.5006,58.6406 -20.57787,84.554 -27.13538,63.4786 -73.34301,106.3543 -127.23739,118.0626 -9.49853,2.0634 -41.81407,5.7684 -44.0792,5.0536 -0.36666,-0.1157 -3.06666,-0.426 -6,-0.6895 z M 464.80914,859.22815 c -13.90881,-3.10774 -26.69762,-10.17398 -36.92429,-20.40189 -10.43162,-10.43289 -15.33094,-18.87859 -13.22935,-22.80544 2.68186,-5.0111 18.12092,-16.21805 31.69576,-23.00742 7.52653,-3.76434 13.18917,-7.33968 12.58365,-7.9452 -1.85514,-1.85514 -20.12041,-4.79576 -36.04533,-5.80312 -11.3268,-0.7165 -15.29645,-1.44063 -15.85336,-2.89192 -0.99543,-2.59405 2.9442,-16.44095 6.89703,-24.24147 12.33756,-24.347 38.24001,-40.13173 65.85545,-40.13173 21.7985,0 37.78485,6.61325 53.17275,21.99657 16.19734,16.19252 22.59927,33.17277 21.36364,56.66415 -0.81609,15.51526 -4.69393,26.84626 -13.32901,38.94724 -17.12795,24.00267 -47.85792,35.94998 -76.18694,29.62023 z m 236.39689,-80.7994 c -1.00604,-1.87979 -1.29903,-6.63136 -0.83045,-13.46774 1.43557,-20.94454 13.08133,-36.13588 36.03887,-47.01096 17.38903,-8.23726 27.55448,-10.48425 46.91888,-10.37103 18.63158,0.10893 32.21927,3.48096 49.9508,12.3962 11.49217,5.77815 17.03947,11.54417 18.24332,18.96264 1.28809,7.93757 -0.006,8.25719 -33.99158,8.39366 -32.31274,0.12975 -38.8968,1.01872 -60.8692,8.21845 -11.97429,3.92364 -30.40482,12.80481 -42.74048,20.59548 -9.51366,6.00842 -10.62023,6.20706 -12.72016,2.2833 z M 344.01784,641.66663 c 0.03,-6.15873 7.2356,-24.82538 14.11129,-36.55617 22.21755,-37.90591 64.18507,-80.65228 94.13551,-95.88251 4.17888,-2.12502 8.49617,-3.519 9.59399,-3.09773 2.3276,0.89318 24.10568,64.96895 23.03233,67.76605 -0.38155,0.9943 -3.58811,2.86428 -7.12568,4.1555 -56.78009,20.7249 -93.70666,39.34565 -121.80838,61.42361 -8.78393,6.90105 -11.96481,7.48486 -11.93906,2.19125 z m 470.64883,-85.83232 c -28.1348,-8.21339 -59.54615,-11.80056 -103.50341,-11.82007 -25.82583,-0.0114 -32.47344,-0.3798 -33.70835,-1.86777 -2.42568,-2.92278 -4.10045,-22.12749 -4.11146,-47.1465 l -0.0101,-23 h 4.1728 c 6.56659,0 33.5228,6.42398 48.33811,11.51954 18.57215,6.38768 43.02506,18.79024 58.15576,29.49669 14.08666,9.9677 45.33333,39.87823 45.33333,43.39484 0,2.86363 -3.33038,2.73267 -14.66666,-0.57673 z M 483.50259,305.35748 c -12.58022,-38.0638 -19.62734,-87.60622 -16.78709,-118.01602 5.30745,-56.82543 31.52633,-98.722115 75.43123,-120.535982 22.18344,-11.021704 45.02962,-14.76237 74.68383,-12.228185 28.97884,2.476469 47.52774,8.428148 67.12922,21.539361 22.83522,15.274229 39.75009,37.280056 44.09715,57.369296 3.4476,15.93252 -0.38203,39.73564 -8.14757,50.64134 -5.63923,7.91956 -18.84043,11.35975 -28.34777,7.38733 -10.37033,-4.333 -14.64577,-14.53235 -16.84351,-40.1813 -0.75403,-8.79999 -2.03292,-18.39999 -2.84199,-21.33333 -6.46735,-23.44786 -30.353,-47.589605 -52.02897,-52.586804 -26.23526,-6.048302 -66.05374,8.803989 -84.58166,31.548954 -15.98899,19.62815 -23.24925,44.53734 -23.2601,79.80289 -0.0121,39.24121 10.66671,72.46911 32.99428,102.66447 5.88192,7.95459 8.076,11.9057 6.98555,12.57964 -0.87438,0.54039 -7.07874,1.72943 -13.78748,2.64231 -6.70874,0.91288 -20.59771,3.38728 -30.86438,5.49868 -10.26666,2.1114 -19.03717,3.84137 -19.49001,3.84438 -0.45284,0.003 -2.40617,-4.78366 -4.34073,-10.63703 z"
         id="path25" />
      <path
         style="fill:#e7454d"
         d="m 637.00988,1208.6209 c -24.67473,-3.3639 -47.28101,-10.8214 -66.07282,-21.7964 -34.64826,-20.2357 -66.67905,-56.0064 -84.36126,-94.2114 -2.72886,-5.8961 -5.77477,-11.3658 -6.76868,-12.1549 -0.99392,-0.789 -8.70712,-3.6887 -17.14045,-6.4437 -31.62436,-10.331 -56.83156,-21.8478 -83.34978,-38.0812 -8.32574,-5.0967 -15.76262,-9.2667 -16.52639,-9.2667 -2.48739,0 -5.23952,7.2706 -10.14713,26.8066 -2.65186,10.5564 -5.35917,19.7411 -6.01625,20.4105 -2.19166,2.2328 -4.21698,-6.3234 -4.23323,-17.8838 -0.0276,-19.6483 8.76966,-47.0969 20.77569,-64.82261 7.83693,-11.57047 24.2791,-25.50644 26.94643,-22.83911 0.38344,0.38344 -2.93832,6.23371 -7.3817,13.00059 -8.76425,13.34723 -15.62287,26.77063 -16.87363,33.02443 l -0.78949,3.9474 19.13107,8.0628 c 30.98182,13.0573 44.68512,18.2992 64.46441,24.6595 55.10684,17.7204 92.02882,23.8237 144,23.8034 73.72047,-0.029 126.84624,-13.056 178.92948,-43.8763 35.04191,-20.7361 60.76471,-43.89728 94.35646,-84.96005 25.26465,-30.88368 55.38072,-74.36388 55.38072,-79.95613 0,-3.29159 -17.25524,-20.65865 -28.67112,-28.85691 -7.27801,-5.22667 -8.02417,-8.46458 -1.66221,-7.21305 28.50691,5.6079 67.1601,50.35269 69.99511,81.02609 0.45111,4.8808 0.20384,7.66667 -0.68049,7.66667 -0.764,0 -4.99558,-5.85 -9.40351,-13 -11.89014,-19.28673 -21.53118,-32.51951 -23.02168,-31.59833 -0.72512,0.44815 -7.33898,12.84451 -14.69747,27.54748 -18.77713,37.51849 -31.013,56.40185 -49.66963,76.65407 -3.9166,4.25156 -7.88591,9.17995 -8.82069,10.95198 -0.93479,1.77203 -2.49613,10.83578 -3.46965,20.14168 -8.27054,79.058 -46.76873,146.8522 -101.88697,179.4202 -31.85693,18.8235 -70.15852,25.5871 -112.33514,19.8372 z M 460.92176,856.66558 c -3.52637,-0.96942 -9.70492,-3.37387 -13.73012,-5.34322 C 434.64993,845.18628 416,825.77843 416,818.86312 c 0,-5.30128 21.44268,-20.8689 38.66667,-28.07242 4.03333,-1.68684 7.84775,-3.54925 8.47648,-4.13868 3.25513,-3.05166 -17.20391,-7.747 -38.85881,-8.91808 -8.27694,-0.4476 -15.36722,-1.32875 -15.75618,-1.95809 -0.38896,-0.62935 0.28434,-4.55502 1.49621,-8.72371 9.2456,-31.80375 37.85029,-53.77163 69.92243,-53.69914 40.48748,0.0915 73.27532,32.87934 73.36683,73.36682 0.0705,31.18534 -21.4109,59.94277 -51.78741,69.32856 -10.00001,3.08982 -30.47783,3.40109 -40.60446,0.6172 z m 240.92705,-81.45999 c -1.55181,-6.18289 0.70185,-19.49486 4.77339,-28.19553 10.42877,-22.28578 41.28148,-37.75 75.3778,-37.78142 29.81078,-0.0275 62.70257,13.40664 67.35744,27.51104 2.74088,8.30492 1.93048,8.54593 -28.49747,8.47509 -30.63082,-0.0713 -42.99592,1.61138 -64.38567,8.7619 -14.19432,4.74511 -32.99698,13.72712 -43.14097,20.60838 -7.40309,5.02196 -10.34001,5.18064 -11.48452,0.62054 z M 345.97913,642.63286 c -1.18782,-1.92192 4.08122,-18.84116 8.74439,-28.07884 14.72918,-29.17835 48.43222,-68.42431 78.03673,-90.87092 9.30376,-7.05426 24.47247,-15.68313 27.56942,-15.68313 2.77749,0 24.29849,63.63654 22.32513,66.01429 -0.70939,0.85477 -3.84692,2.30641 -6.9723,3.22587 -3.12537,0.91945 -15.57108,5.58171 -27.65713,10.36057 -36.20877,14.31704 -67.82243,31.19175 -88.85847,47.43079 -11.70624,9.03677 -12.14452,9.28939 -13.18777,7.60137 z M 816.66667,554.56927 C 791.89879,546.76495 759.63234,542.76481 714,541.84147 c -19.06667,-0.3858 -35.10828,-1.12958 -35.64803,-1.65284 -3.42477,-3.32016 -5.17955,-65.03229 -1.88513,-66.29647 3.00468,-1.15301 28.55465,4.59274 45.47977,10.22762 27.27067,9.07921 48.59545,20.33651 69.77779,36.83552 12.57163,9.79209 34.94227,31.94967 34.94227,34.60947 0,2.14768 -0.0362,2.14407 -10,-0.9955 z M 486.20478,311.77121 c -1.09655,-1.70751 -3.80704,-9.40456 -6.02332,-17.10456 -12.42639,-43.17283 -17.12281,-92.04065 -11.74215,-122.18091 8.91984,-49.9653 34.02896,-85.966276 73.70742,-105.680262 22.18344,-11.021704 45.02962,-14.76237 74.68383,-12.228185 28.97884,2.476469 47.52774,8.428148 67.12922,21.539361 22.83522,15.274229 39.75009,37.280056 44.09715,57.369296 3.4476,15.93252 -0.38203,39.73564 -8.14757,50.64134 -5.63923,7.91956 -18.84043,11.35975 -28.34777,7.38733 -10.37033,-4.333 -14.64577,-14.53235 -16.84351,-40.1813 -0.75403,-8.79999 -2.03292,-18.39999 -2.84199,-21.33333 -6.46735,-23.44786 -30.353,-47.589605 -52.02897,-52.586804 -26.23526,-6.048302 -66.05374,8.803989 -84.58166,31.548954 -15.98899,19.62815 -23.24925,44.53734 -23.2601,79.80289 -0.0119,38.59379 10.56131,72.07483 32.00346,101.34219 5.11505,6.98176 7.32001,11.06663 6.5079,12.05641 -0.67554,0.82334 -4.96816,1.91 -9.53915,2.41479 -8.48333,0.93684 -47.54234,8.28784 -50.91641,9.58259 -1.04874,0.40244 -2.73384,-0.64181 -3.85638,-2.3898 z"
         id="path24" />
      <path
         style="fill:#a85d1d"
         d="m 637.00988,1208.6209 c -24.67473,-3.3639 -47.28101,-10.8214 -66.07282,-21.7964 -34.64826,-20.2357 -66.67905,-56.0064 -84.36126,-94.2114 -2.72886,-5.8961 -5.77477,-11.3658 -6.76868,-12.1549 -0.99392,-0.789 -8.70712,-3.6887 -17.14045,-6.4437 -31.62436,-10.331 -56.83156,-21.8478 -83.34978,-38.0812 -8.32574,-5.0967 -15.76262,-9.2667 -16.52639,-9.2667 -2.48739,0 -5.23952,7.2706 -10.14713,26.8066 -2.65186,10.5564 -5.35917,19.7411 -6.01625,20.4105 -2.19166,2.2328 -4.21698,-6.3234 -4.23323,-17.8838 -0.0276,-19.6483 8.76966,-47.0969 20.77569,-64.82261 7.83693,-11.57047 24.2791,-25.50644 26.94643,-22.83911 0.38344,0.38344 -2.93832,6.23371 -7.3817,13.00059 -8.76425,13.34723 -15.62287,26.77063 -16.87363,33.02443 l -0.78949,3.9474 19.13107,8.0628 c 30.98182,13.0573 44.68512,18.2992 64.46441,24.6595 55.10684,17.7204 92.02882,23.8237 144,23.8034 73.72047,-0.029 126.84624,-13.056 178.92948,-43.8763 35.04191,-20.7361 60.76471,-43.89728 94.35646,-84.96005 25.26465,-30.88368 55.38072,-74.36388 55.38072,-79.95613 0,-3.29159 -17.25524,-20.65865 -28.67112,-28.85691 -7.27801,-5.22667 -8.02417,-8.46458 -1.66221,-7.21305 28.50691,5.6079 67.1601,50.35269 69.99511,81.02609 0.45111,4.8808 0.20384,7.66667 -0.68049,7.66667 -0.764,0 -4.99558,-5.85 -9.40351,-13 -11.89014,-19.28673 -21.53118,-32.51951 -23.02168,-31.59833 -0.72512,0.44815 -7.33898,12.84451 -14.69747,27.54748 -18.77713,37.51849 -31.013,56.40185 -49.66963,76.65407 -3.9166,4.25156 -7.88591,9.17995 -8.82069,10.95198 -0.93479,1.77203 -2.49613,10.83578 -3.46965,20.14168 -8.27054,79.058 -46.76873,146.8522 -101.88697,179.4202 -31.85693,18.8235 -70.15852,25.5871 -112.33514,19.8372 z m 41.84776,-16.0608 c 23.7156,-2.4712 35.92194,-5.3501 49.72585,-11.7279 25.61016,-11.8327 48.80762,-31.8117 67.30102,-57.9637 8.14456,-11.5174 9.45637,-14.0804 7.93642,-15.5061 -3.17552,-2.9785 -22.85651,-9.7766 -37.25755,-12.8692 -20.12063,-4.3209 -46.77166,-4.3393 -57.53661,-0.04 -11.4547,4.5751 -25.90224,15.6278 -35.51583,27.1704 -4.71391,5.6598 -9.02834,10.0077 -9.58763,9.6621 -0.55929,-0.3457 0.85234,-6.3033 3.13695,-13.2391 2.28461,-6.9358 3.68062,-13.0837 3.10224,-13.662 -1.65472,-1.6546 -27.37722,-1.0509 -35.49583,0.8331 -16.41157,3.8083 -36.48313,16.5418 -49.57204,31.4487 -8.06069,9.1803 -19.71218,27.2432 -18.91435,29.3223 1.20057,3.1287 34.6466,18.9743 47.81972,22.6554 22.04463,6.1602 35.51441,6.9735 64.85764,3.9158 z M 460.92176,856.66558 c -3.52637,-0.96942 -9.70492,-3.37387 -13.73012,-5.34322 C 434.64993,845.18628 416,825.77843 416,818.86312 c 0,-5.30128 21.44268,-20.8689 38.66667,-28.07242 4.03333,-1.68684 7.84775,-3.54925 8.47648,-4.13868 3.25513,-3.05166 -17.20391,-7.747 -38.85881,-8.91808 -8.27694,-0.4476 -15.36722,-1.32875 -15.75618,-1.95809 -0.38896,-0.62935 0.28434,-4.55502 1.49621,-8.72371 9.2456,-31.80375 37.85029,-53.77163 69.92243,-53.69914 40.48748,0.0915 73.27532,32.87934 73.36683,73.36682 0.0705,31.18534 -21.4109,59.94277 -51.78741,69.32856 -10.00001,3.08982 -30.47783,3.40109 -40.60446,0.6172 z m 240.92705,-81.45999 c -1.55181,-6.18289 0.70185,-19.49486 4.77339,-28.19553 10.42877,-22.28578 41.28148,-37.75 75.3778,-37.78142 29.81078,-0.0275 62.70257,13.40664 67.35744,27.51104 2.74088,8.30492 1.93048,8.54593 -28.49747,8.47509 -30.63082,-0.0713 -42.99592,1.61138 -64.38567,8.7619 -14.19432,4.74511 -32.99698,13.72712 -43.14097,20.60838 -7.40309,5.02196 -10.34001,5.18064 -11.48452,0.62054 z M 345.97913,642.63286 c -1.18782,-1.92192 4.08122,-18.84116 8.74439,-28.07884 14.72918,-29.17835 48.43222,-68.42431 78.03673,-90.87092 9.30376,-7.05426 24.47247,-15.68313 27.56942,-15.68313 2.77749,0 24.29849,63.63654 22.32513,66.01429 -0.70939,0.85477 -3.84692,2.30641 -6.9723,3.22587 -3.12537,0.91945 -15.57108,5.58171 -27.65713,10.36057 -36.20877,14.31704 -67.82243,31.19175 -88.85847,47.43079 -11.70624,9.03677 -12.14452,9.28939 -13.18777,7.60137 z M 816.66667,554.56927 C 791.89879,546.76495 759.63234,542.76481 714,541.84147 c -19.06667,-0.3858 -35.10828,-1.12958 -35.64803,-1.65284 -3.42477,-3.32016 -5.17955,-65.03229 -1.88513,-66.29647 3.00468,-1.15301 28.55465,4.59274 45.47977,10.22762 27.27067,9.07921 48.59545,20.33651 69.77779,36.83552 12.57163,9.79209 34.94227,31.94967 34.94227,34.60947 0,2.14768 -0.0362,2.14407 -10,-0.9955 z M 483.43595,300.13548 c -5.23822,-16.20344 -11.71907,-46.88394 -14.18613,-67.1575 -2.54852,-20.94307 -0.97551,-55.84536 3.27682,-72.70679 11.55197,-45.80599 34.58264,-75.274244 73.19905,-93.659802 20.61269,-9.813852 42.70825,-13.114374 71.45775,-10.673994 36.98565,3.139497 61.65582,13.815769 84.87207,36.729268 19.31948,19.067538 26.91042,37.021548 25.6224,60.601768 -1.4061,25.74192 -12.78936,40.30566 -29.98833,38.36709 -12.65997,-1.42696 -18.54718,-10.56598 -20.49792,-31.81998 -3.10282,-33.80633 -7.67773,-46.08538 -23.21927,-62.320525 -20.7039,-21.627888 -39.75174,-27.025432 -69.09986,-19.580671 -18.44542,4.679064 -32.63102,12.477832 -44.97731,24.727016 -15.18018,15.06079 -22.91151,30.81669 -27.20621,55.44429 -2.65059,15.1996 -2.63121,46.06664 0.0385,61.40635 4.39926,25.27696 15.59122,51.71567 30.27619,71.52129 4.25904,5.74417 7.43896,10.93704 7.06648,11.53972 -0.37247,0.60268 -4.44065,1.51145 -9.04039,2.01949 -8.52145,0.9412 -47.58396,8.28967 -50.96749,9.58805 -1.37399,0.52725 -3.10933,-3.14567 -6.6264,-14.02507 z"
         id="path23" />
      <path
         style="fill:#8c282b"
         d="m 637.14771,1207.3049 c -45.21194,-6.169 -83.62424,-27.0097 -114.18674,-61.9524 -12.86881,-14.7132 -26.07886,-34.6185 -34.23281,-51.5831 -3.7175,-7.7344 -7.71035,-14.1772 -9.29045,-14.9909 -1.52408,-0.7848 -10.84213,-4.1695 -20.70679,-7.5216 -31.6807,-10.7655 -51.69762,-19.9948 -78.2903,-36.098 -8.92433,-5.4041 -17.20494,-9.8256 -18.40137,-9.8256 -2.9348,0 -5.42404,6.3942 -10.6021,27.234 -2.38231,9.588 -4.88024,17.2748 -5.55097,17.0818 -0.67073,-0.193 -1.16464,-7.693 -1.09758,-16.6667 0.10448,-13.9813 0.64867,-17.9374 3.80335,-27.6491 7.07682,-21.7862 19.73809,-41.85609 32.5885,-51.65742 3.20543,-2.44487 6.08245,-4.19081 6.39339,-3.87987 0.31093,0.31093 -2.80803,5.74052 -6.93103,12.06576 C 372.4651,994.40749 364,1011.6438 364,1015.7493 c 0,1.4249 0.75,3.1849 1.66667,3.9111 2.79033,2.2105 53.88086,22.8273 72.33333,29.189 22.06777,7.6081 49.58657,15.4195 66.66667,18.9238 72.13758,14.8004 157.81459,10.3886 216.18169,-11.1318 47.20641,-17.4054 89.47883,-46.257 124.99091,-85.30812 31.3511,-34.47549 76.8274,-96.80285 76.8274,-105.2955 0,-2.85121 -16.81822,-20.27875 -28.66667,-29.70526 -5.03802,-4.0082 -5.14876,-4.24557 -2,-4.28681 5.26316,-0.0689 18.59897,6.90351 27.71642,14.49113 10.1411,8.4395 21.36588,21.75192 28.32886,33.59757 6.03194,10.26173 12.28668,27.90388 11.69754,32.99415 -0.36805,3.18003 -0.93702,2.66105 -5.62265,-5.12861 -8.96286,-14.90038 -24.04596,-35.97636 -25.75525,-35.98844 -0.8993,-0.006 -8.2959,13.22605 -16.43688,29.40534 -16.37503,32.54352 -27.44817,50.02579 -44.13818,69.68538 -15.99445,18.84025 -15.8208,18.47025 -17.8723,38.08047 -6.43854,61.5459 -29.26706,112.876 -67.15874,151.0067 -22.79717,22.941 -44.51797,36.1212 -71.0475,43.1116 -23.34202,6.1504 -48.8089,7.518 -74.56361,4.0039 z m 41.70993,-14.7448 c 23.7156,-2.4712 35.92194,-5.3501 49.72585,-11.7279 25.61016,-11.8327 48.80762,-31.8117 67.30102,-57.9637 8.14456,-11.5174 9.45637,-14.0804 7.93642,-15.5061 -3.17552,-2.9785 -22.85651,-9.7766 -37.25755,-12.8692 -20.12063,-4.3209 -46.77166,-4.3393 -57.53661,-0.04 -11.4547,4.5751 -25.90224,15.6278 -35.51583,27.1704 -4.71391,5.6598 -9.02834,10.0077 -9.58763,9.6621 -0.55929,-0.3457 0.85234,-6.3033 3.13695,-13.2391 2.28461,-6.9358 3.68062,-13.0837 3.10224,-13.662 -1.65472,-1.6546 -27.37722,-1.0509 -35.49583,0.8331 -16.41157,3.8083 -36.48313,16.5418 -49.57204,31.4487 -8.06069,9.1803 -19.71218,27.2432 -18.91435,29.3223 1.20057,3.1287 34.6466,18.9743 47.81972,22.6554 22.04463,6.1602 35.51441,6.9735 64.85764,3.9158 z M 460,854.81623 c -11.07967,-3.58625 -20.04251,-8.58169 -27.61849,-15.39314 -7.55238,-6.79024 -15.04818,-17.22673 -15.04818,-20.95176 0,-3.96455 15.56589,-15.24955 33.03811,-23.95206 12.53968,-6.24573 16.04513,-8.54742 14.97727,-9.83412 -3.07978,-3.71091 -29.36223,-8.68519 -45.88963,-8.68519 -4.59138,0 -8.67755,-0.32958 -9.08036,-0.73239 -1.18819,-1.18819 1.50378,-11.37299 5.07902,-19.21603 16.66683,-36.56218 61.51808,-51.73812 98.19291,-33.22473 10.49121,5.29594 24.31378,19.09634 30.02536,29.97719 21.14709,40.28626 -0.83857,91.14188 -44.29543,102.46096 -10.76863,2.80487 -30.00587,2.58567 -39.38058,-0.44873 z M 703.55556,776.4444 c -1.51475,-1.51475 -0.94968,-12.76389 1.01117,-20.12977 4.1266,-15.50148 14.25231,-26.65375 31.8435,-35.07181 17.64606,-8.44432 30.32037,-11.0335 50.20709,-10.25657 18.83124,0.73569 30.73397,3.94724 47.2934,12.7605 10.14363,5.39865 14.02094,9.58768 14.46495,15.62789 l 0.291,3.95865 L 824,743.41603 c -27.34076,0.0917 -35.06316,0.80438 -52.66667,4.8604 -19.36557,4.46203 -39.95394,13.2152 -57.53235,24.45997 -7.4198,4.74639 -8.73209,5.22133 -10.24542,3.708 z M 348,637.96744 c 0,-9.28258 13.20077,-34.43323 29.64353,-56.4781 11.91743,-15.97773 42.18532,-46.58424 56.35934,-56.98985 13.40138,-9.83839 25.45447,-16.27324 27.12759,-14.48276 2.00751,2.14833 20.46137,60.71977 19.73066,62.62395 -0.36902,0.96166 -3.86374,2.79077 -7.76603,4.06469 -40.1014,13.0912 -88.31272,36.90242 -112.42842,55.52758 C 347.7789,642.1865 348,642.0864 348,637.96744 Z m 464,-86.16088 c -24.15798,-7.12979 -68.17789,-11.78791 -111.51533,-11.80039 l -21.51534,-0.006 -0.7911,-4.33333 c -0.4351,-2.38334 -1.19456,-17.08334 -1.68768,-32.66667 -0.7547,-23.84982 -0.60071,-28.33002 0.9731,-28.31244 4.21298,0.0471 28.06091,5.60616 40.28338,9.39027 35.48934,10.98763 65.01455,28.45241 91.8751,54.34605 12.32839,11.8846 15.88238,16.3672 12.75812,16.09165 -0.94247,-0.0831 -5.61358,-1.30214 -10.38025,-2.70894 z M 486.03085,307.61281 C 480.6528,294.74132 473.42132,262.75187 470.0528,236.9317 458.74278,150.2389 493.03745,83.193474 560,61.086663 c 11.7456,-3.877658 14.34006,-4.225654 35.67949,-4.785714 32.87184,-0.862733 53.35944,2.823333 74.32051,13.371519 26.41409,13.292299 48.17069,36.347962 55.04108,58.327522 3.54408,11.33814 3.06844,34.30989 -0.9202,44.44262 -5.74872,14.60401 -14.86891,20.95123 -27.25783,18.97017 -12.95125,-2.07099 -17.59472,-10.92134 -20.26626,-38.62702 -2.46064,-25.5185 -6.12086,-35.83142 -18.07536,-50.92854 -20.57169,-25.979608 -47.49704,-33.259468 -81.1881,-21.950986 -32.41978,10.881775 -54.38372,34.414526 -62.6195,67.092176 -3.8123,15.12631 -5.56849,39.0505 -4.08869,55.6993 3.00536,33.81225 12.80691,61.32974 30.77776,86.40731 4.37689,6.10777 7.65971,11.58764 7.29516,12.1775 -0.36455,0.58986 -4.12075,1.48632 -8.34711,1.99215 -4.22635,0.50583 -16.68428,2.67352 -27.68428,4.8171 -11,2.14358 -21.08062,3.89984 -22.40137,3.90281 -1.45773,0.003 -3.1217,-1.71859 -4.23445,-4.38177 z"
         id="path22" />
      <path
         style="fill:#78122a"
         d="m 637.33333,1206.0846 c -40.64473,-5.8698 -71.25861,-20.701 -100.3603,-48.6205 C 516.09591,1137.435 504.9158,1122.1937 490,1093.4282 l -8,-15.4283 -23.33333,-8.138 c -34.85543,-12.1567 -55.36024,-21.8587 -84.42373,-39.9454 -12.89081,-8.0222 -14.66027,-7.8525 -18.25341,1.7501 -1.5778,4.2167 -4.26079,13.5566 -5.96221,20.7553 -1.70141,7.1988 -3.52441,13.4988 -4.0511,14 -0.5267,0.5013 -0.68202,-5.9886 -0.34516,-14.422 0.50762,-12.7085 1.34618,-17.5016 4.8986,-28 2.35737,-6.9666 6.42217,-16.5666 9.03288,-21.3333 5.67662,-10.36443 16.37692,-24.11333 21.25321,-27.3084 3.8245,-2.5059 3.91676,-2.75111 -3.14289,8.35321 -7.77162,12.22419 -15.13195,28.65389 -14.72102,32.86019 0.3657,3.7434 1.48554,4.3669 27.04816,15.0587 87.26616,36.4999 151.07382,49.3712 225.8501,45.5585 40.26996,-2.0532 76.15583,-8.6311 105.34826,-19.3103 30.03973,-10.9891 67.32595,-32.2714 90.52903,-51.6724 20.5878,-17.21426 51.8089,-51.42231 74.98361,-82.15737 C 904.47189,900.49366 924,870.28471 924,866.36462 c 0,-4.45445 -7.14708,-12.64167 -21.39939,-24.51369 -5.06976,-4.22306 -8.97876,-7.91728 -8.68666,-8.20937 0.90141,-0.90141 12.3359,4.61017 18.82067,9.07182 13.40431,9.2224 29.05574,27.68615 37.26036,43.95546 3.90399,7.7414 8.67169,21.1319 8.67169,24.35521 0,0.66371 -6.15,-7.99519 -13.66667,-19.242 -9.53491,-14.26662 -14.52006,-20.57055 -16.48945,-20.85161 -2.44773,-0.34932 -4.49832,3.0167 -15.43318,25.33333 -18.47841,37.71208 -30.60343,56.71866 -50.44143,79.06951 -4.55621,5.13333 -9.1342,10.61007 -10.17331,12.17052 -1.07484,1.61409 -2.70728,10.60228 -3.78674,20.8496 -4.60888,43.7522 -16.13805,79.2208 -36.72172,112.9713 -27.64458,45.3282 -65.15516,73.445 -111.2875,83.4178 -13.27409,2.8696 -47.70447,3.5992 -63.33334,1.3421 z m 49.58945,-12.1603 c 31.37565,-3.558 52.31039,-12.5634 78.86351,-33.9243 11.183,-8.9963 19.28004,-18.1928 33.26956,-37.7871 7.33709,-10.2766 9.11467,-13.6446 8.07301,-15.2959 -1.94839,-3.0889 -25.67287,-11.6145 -41.82947,-15.0319 -18.70842,-3.9572 -42.8306,-4.2849 -53.29939,-0.7242 -11.96488,4.0695 -21.33179,10.1108 -32.90762,21.2241 l -10.91492,10.4788 2.79053,-8.583 c 4.33646,-13.3379 4.3113,-13.3563 -17.31737,-12.6572 -14.37091,0.4645 -20.18448,1.2346 -26.98395,3.5744 -13.24638,4.5582 -26.13992,12.8528 -37.33172,24.0158 -11.22892,11.2001 -25.34951,31.1319 -25.34065,35.7694 0.007,3.615 5.84307,7.5247 24.67237,16.5279 22.56892,10.7913 48.40743,16.1162 72,14.8379 5.13333,-0.2781 16.94858,-1.3692 26.25611,-2.4247 z M 458.66667,852.96553 c -4.76667,-1.63107 -11.54555,-4.65779 -15.06418,-6.72606 -7.66298,-4.50433 -19.36281,-16.09836 -22.93048,-22.72311 l -2.57307,-4.77791 3.95053,-4.14219 c 6.08076,-6.37578 21.15149,-15.88789 33.8263,-21.34997 12.33071,-5.31378 14.53399,-8.42045 8.12423,-11.45532 -5.72335,-2.70988 -24.07542,-5.9316 -38.47038,-6.7535 l -13.80371,-0.78816 0.86173,-5.38894 c 3.54032,-22.13997 26.76018,-44.96528 51.732,-50.85298 50.59416,-11.92878 96.26838,33.74543 84.3396,84.33959 -5.86132,24.85996 -27.30799,46.67434 -51.32591,52.20592 -10.7205,2.46905 -29.00586,1.71838 -38.66666,-1.58737 z m 245.83634,-78.91125 c -1.38089,-3.59855 0.35961,-15.43576 3.49703,-23.78341 10.52508,-28.00383 58.2346,-45.22793 98.52463,-35.56938 12.31764,2.95286 31.07192,11.26977 35.89034,15.9162 3.42699,3.30465 5.99422,8.97476 4.87985,10.77785 -0.39831,0.64449 -12.55261,1.12267 -27.00953,1.06263 -46.20601,-0.19189 -74.62382,7.90905 -111.93841,31.90982 -2.65544,1.70797 -3.08146,1.6732 -3.84391,-0.31371 z M 349.78184,634.75745 c 0.49137,-2.45689 3.49273,-9.93241 6.66968,-16.61228 17.2388,-36.24632 58.84646,-82.01758 93.00298,-102.30959 5.33795,-3.17122 9.8263,-5.04527 10.45095,-4.36365 C 461.0886,512.76298 480,569.11958 480,571.35437 c 0,0.74416 -3.15,2.45031 -7,3.79144 -47.34846,16.4937 -88.34866,37.18041 -118.22246,59.64933 l -5.88912,4.42938 z m 454.31604,-86.19031 c -25.39794,-6.35416 -65.84483,-10.16718 -104.05478,-9.80948 l -19.29023,0.18058 -1.09047,-3.80247 c -0.59975,-2.09136 -1.46297,-16.32075 -1.91827,-31.62087 l -0.8278,-27.8184 4.54183,0.91951 c 40.94951,8.29037 69.01536,19.281 96.5981,37.82797 19.72029,13.26016 46.30582,37.8989 40.36787,37.41183 -0.96661,-0.0793 -7.41342,-1.55919 -14.32625,-3.28867 z M 484.23466,296.99998 c -12.66049,-41.31015 -18.00879,-91.9896 -12.85645,-121.82534 8.82361,-51.09498 31.46961,-84.536802 71.11068,-105.010613 20.43972,-10.5567 28.45273,-12.1708 60.17778,-12.121898 23.66553,0.03648 28.90321,0.436721 39.03242,2.982698 24.48743,6.154912 43.0838,16.68412 60.44755,34.22522 24.09132,24.337383 30.75112,54.272993 18.09229,81.324283 -2.71275,5.79703 -5.23589,9.19309 -7.79204,10.48783 -9.04338,4.58067 -19.24096,3.78818 -25.37214,-1.97177 -4.3305,-4.06828 -8.04561,-17.79025 -8.98365,-33.18157 -0.95087,-15.6018 -3.47399,-25.91883 -9.06845,-37.08086 -4.9926,-9.96121 -19.53175,-26.071006 -29.02988,-32.165938 -20.60119,-13.219747 -48.88375,-12.445029 -78.53087,2.151122 -10.0319,4.939003 -14.56266,8.206448 -22.66666,16.346526 -5.57072,5.59551 -12.15914,13.63575 -14.64095,17.86721 -5.71124,9.7376 -11.38233,26.55306 -13.59353,40.30644 -2.43475,15.14389 -2.18262,46.68954 0.49085,61.41122 4.51303,24.85142 15.31821,50.69109 29.10487,69.60184 3.5806,4.91141 6.51019,9.32366 6.51019,9.805 0,0.48134 -4.95,1.59528 -11,2.47542 -6.05,0.88015 -18.13251,3.04917 -26.85003,4.82006 -8.71751,1.77088 -16.8723,3.21979 -18.12176,3.21979 -1.71992,0 -3.28915,-3.31972 -6.46022,-13.66667 z"
         id="path21" />
    </g>
  </g>
</svg>
